<?xml version="1.0" encoding="utf-8"?>
<!-- Generator: Adobe Illustrator 15.1.0, SVG Export Plug-In . SVG Version: 6.00 Build 0)  -->
<!DOCTYPE svg PUBLIC "-//W3C//DTD SVG 1.1//EN" "http://www.w3.org/Graphics/SVG/1.1/DTD/svg11.dtd">
<svg version="1.1" id="Layer_1" xmlns="http://www.w3.org/2000/svg" xmlns:xlink="http://www.w3.org/1999/xlink" x="0px" y="0px"
	 width="652px" height="323.8px" viewBox="0 0 652 323.8" style="enable-background:new 0 0 652 323.8;" xml:space="preserve">
<style type="text/css">
<![CDATA[
	.st0{fill:#8B5E3C;}
	.st1{fill:#BE1E2D;}
	.st2{font-family:'MyriadPro-Regular';}
	.st3{fill:#4DA045;stroke:#FFFFFF;stroke-miterlimit:10;}
	.st4{fill:#C2B59B;}
	.st5{fill:none;stroke:#F1F2F2;stroke-width:2;stroke-miterlimit:10;}
	.st6{fill:none;stroke:#006838;stroke-width:2;stroke-miterlimit:10;}
	.st7{fill:none;}
	.st8{fill:none;stroke:#F1F2F2;stroke-miterlimit:10;}
	.st9{fill:#00AEEF;}
	.st10{fill:#8B5E3C;stroke:#603913;stroke-miterlimit:10;}
	.st11{font-size:21;}
	.st12{font-size:22;}
]]>
</style>
<rect y="-0.5" class="st3" width="652" height="324.8"/>
<polygon class="st10" points="533.6,179.7 490.3,204.7 447.3,181.6 447,129.7 490.3,104.7 533.6,129.7 "/>
<polygon class="st10" points="212.8,178.6 169.5,203.6 126.2,178.6 126.2,128.6 169.5,103.6 212.8,128.6 "/>
<line class="st5" x1="444" y1="-1.2" x2="447" y2="323.1"/>
<line class="st5" x1="213.8" y1="-0.3" x2="214.8" y2="324"/>
<line class="st8" x1="386.7" y1="346" x2="386.7" y2="345.4"/>
<line class="st6" x1="214.8" y1="160.9" x2="444" y2="160.9"/>
<rect x="215.8" y="1" class="st4" width="38.4" height="20.1"/>
<rect x="403.8" y="1" class="st4" width="38.4" height="20.1"/>
<rect x="313.4" y="303.7" class="st4" width="38.4" height="20.1"/>
<rect x="506" y="303.7" class="st4" width="38.4" height="20.1"/>
<rect x="117.6" y="303.7" class="st4" width="38.4" height="20.1"/>
<line class="st6" x1="126.2" y1="0" x2="126.2" y2="323.8"/>
<line class="st6" x1="532.6" y1="0" x2="535.4" y2="323.8"/>
<polygon class="st0" points="0,324.3 0,272.1 43,324.3 "/>
<polygon class="st0" points="652,324.3 652,272.1 609,324.3 "/>
<line class="st8" x1="0" y1="51.8" x2="60.5" y2="1"/>
<line class="st8" x1="592.5" y1="1" x2="652" y2="54.1"/>
<rect x="588.6" y="142.1" class="st9" width="40.7" height="39"/>
<rect x="588.6" y="211.1" class="st9" width="40.7" height="39"/>
<rect x="588.6" y="73.7" class="st9" width="40.7" height="39"/>
<rect x="22.7" y="140.5" class="st1" width="40.7" height="39"/>
<rect x="22.7" y="209.5" class="st1" width="40.7" height="39"/>
<rect x="22.7" y="72.1" class="st1" width="40.7" height="39"/>
<rect x="137.5" y="144.7" class="st7" width="64" height="33.7"/>
<text transform="matrix(1 0 0 1 137.5107 159.6221)" class="st2 st11">Airship</text>
<rect x="458.3" y="143.1" class="st7" width="64" height="33.7"/>
<text transform="matrix(1 0 0 1 458.3027 158.0171)" class="st2 st11">Airship</text>
<rect x="602.7" y="154.6" class="st7" width="23.8" height="18.6"/>
<text transform="matrix(1 0 0 1 602.6875 169.4824)" class="st2 st11">1</text>
<rect x="602.8" y="85.8" class="st7" width="25.6" height="18.6"/>
<text transform="matrix(1 0 0 1 602.8145 100.75)" class="st2 st11">2</text>
<rect x="603.7" y="223.9" class="st7" width="29.7" height="24.6"/>
<text transform="matrix(1 0 0 1 603.6523 238.7744)" class="st2 st11">3</text>
<rect x="36.4" y="151.3" class="st7" width="23.8" height="18.6"/>
<text transform="matrix(1 0 0 1 36.3608 166.1973)" class="st2 st11">1</text>
<rect x="36.5" y="82.6" class="st7" width="25.6" height="18.6"/>
<text transform="matrix(1 0 0 1 36.4883 97.4658)" class="st2 st11">2</text>
<rect x="37.3" y="220.6" class="st7" width="29.7" height="24.6"/>
<text transform="matrix(1 0 0 1 37.3257 235.4902)" class="st2 st11">3</text>
<rect x="7.4" y="302.7" class="st7" width="59.9" height="22.1"/>
<text transform="matrix(1 0 0 1 7.3838 318.2852)" class="st2 st12">Boiler</text>
<rect x="584.7" y="298.2" class="st7" width="59.9" height="22.1"/>
<text transform="matrix(1 0 0 1 584.6641 313.8047)" class="st2 st12">Boiler</text>
</svg>
